<?xml version="1.0" encoding="UTF-8" standalone="no"?>
<!-- Created with Inkscape (http://www.inkscape.org/) -->

<svg
   xmlns:dc="http://purl.org/dc/elements/1.1/"
   xmlns:cc="http://creativecommons.org/ns#"
   xmlns:rdf="http://www.w3.org/1999/02/22-rdf-syntax-ns#"
   xmlns:svg="http://www.w3.org/2000/svg"
   xmlns="http://www.w3.org/2000/svg"
   xmlns:sodipodi="http://sodipodi.sourceforge.net/DTD/sodipodi-0.dtd"
   xmlns:inkscape="http://www.inkscape.org/namespaces/inkscape"
   id="svg3020"
   version="1.1"
   inkscape:version="0.48.4 r9939"
   width="856.75366"
   height="322.74115"
   xml:space="preserve"
   sodipodi:docname="Realmd-Internals.pdf"><metadata
     id="metadata3026"><rdf:RDF><cc:Work
         rdf:about=""><dc:format>image/svg+xml</dc:format><dc:type
           rdf:resource="http://purl.org/dc/dcmitype/StillImage" /><dc:title></dc:title></cc:Work></rdf:RDF></metadata><defs
     id="defs3024"><clipPath
       clipPathUnits="userSpaceOnUse"
       id="clipPath3034"><path
         d="M 0,0 720,0 720,540 0,540 0,0 z"
         clip-rule="evenodd"
         id="path3036"
         inkscape:connector-curvature="0" /></clipPath><clipPath
       clipPathUnits="userSpaceOnUse"
       id="clipPath3254"><path
         d="m 360,74 0,0 0,393.1 0,0 0,-393.1 z"
         id="path3256"
         inkscape:connector-curvature="0" /></clipPath></defs><sodipodi:namedview
     pagecolor="#ffffff"
     bordercolor="#666666"
     borderopacity="1"
     objecttolerance="10"
     gridtolerance="10"
     guidetolerance="10"
     inkscape:pageopacity="0"
     inkscape:pageshadow="2"
     inkscape:window-width="1143"
     inkscape:window-height="862"
     id="namedview3022"
     showgrid="false"
     fit-margin-top="1"
     units="cm"
     fit-margin-right="1"
     fit-margin-bottom="1"
     fit-margin-left="1"
     inkscape:zoom="0.81555556"
     inkscape:cx="426.27289"
     inkscape:cy="33.933349"
     inkscape:window-x="0"
     inkscape:window-y="27"
     inkscape:window-maximized="0"
     inkscape:current-layer="g3028" /><g
     id="g3028"
     inkscape:groupmode="layer"
     inkscape:label="Realmd-Internals"
     transform="matrix(1.25,0,0,-1.25,-26.179429,626.30807)"><path
       d="m 633.9,335.2 -43.5,0 0,76.4 87.1,0 0,-76.4 -43.6,0 z"
       style="fill:#cfe7f5;fill-opacity:1;fill-rule:evenodd;stroke:#000000"
       id="path3138"
       inkscape:connector-curvature="0" /><g
       id="g3140"><path
         d="m 633.9,335.2 -43.5,0 0,76.4 87.1,0 0,-76.4 -43.6,0 z"
         style="fill:none;stroke:none"
         id="path3142"
         inkscape:connector-curvature="0" /></g><g
       id="g3144"><text
         transform="matrix(1,0,0,-1,615,367.1)"
         id="text3146"><tspan
           style="font-size:18px;font-variant:normal;font-weight:normal;writing-mode:lr-tb;fill:#313739;fill-opacity:1;fill-rule:nonzero;stroke:none;font-family:Liberation Sans;-inkscape-font-specification:LiberationSans"
           x="0 12.906 25.902"
           y="0"
           sodipodi:role="line"
           id="tspan3148">DNS</tspan></text>
</g><path
       d="m 320.8,271.7 -43.5,0 0,143.7 87.1,0 0,-143.7 -43.6,0 z"
       style="fill:#cfe7f5;fill-opacity:1;fill-rule:evenodd;stroke:#000000"
       id="path3150"
       inkscape:connector-curvature="0" /><g
       id="g3152"><path
         d="m 320.8,271.7 -43.5,0 0,143.7 87.1,0 0,-143.7 -43.6,0 z"
         style="fill:none;stroke:none"
         id="path3154"
         inkscape:connector-curvature="0" /></g><g
       id="g3156"><text
         transform="matrix(1,0,0,-1,294.9,297)"
         id="text3158"><tspan
           style="font-size:18px;font-variant:normal;font-weight:normal;writing-mode:lr-tb;fill:#313739;fill-opacity:1;fill-rule:nonzero;stroke:none;font-family:Liberation Sans;-inkscape-font-specification:LiberationSans"
           x="0 12.996 22.896 32.903999 36.900002"
           y="0"
           sodipodi:role="line"
           id="tspan3160">Realm</tspan></text>
</g><g
       id="g3162"><text
         transform="matrix(1,0,0,-1,287.4,276.8)"
         id="text3164"><tspan
           style="font-size:18px;font-variant:normal;font-weight:normal;writing-mode:lr-tb;fill:#313739;fill-opacity:1;fill-rule:nonzero;stroke:none;font-family:Liberation Sans;-inkscape-font-specification:LiberationSans"
           x="0 11.988 17.982 27.99 36.990002 40.896 50.903999 60.804001"
           y="0"
           sodipodi:role="line"
           id="tspan3166">Provider</tspan></text>
</g><path
       d="m 364.8,396.6 213.4,0"
       style="fill:none;stroke:#000000;stroke-width:0.81999999;stroke-linecap:butt;stroke-linejoin:miter;stroke-miterlimit:10;stroke-opacity:1;stroke-dasharray:none"
       id="path3168"
       inkscape:connector-curvature="0" /><path
       d="m 590.4,396.6 -12.8,4.3 0,-8.5 12.8,4.2 z"
       style="fill:#000000;fill-opacity:1;fill-rule:evenodd;stroke:none"
       id="path3170"
       inkscape:connector-curvature="0" /><g
       id="g3172"><text
         transform="matrix(1,0,0,-1,382.4,400.5)"
         id="text3174"><tspan
           style="font-size:18px;font-variant:normal;font-weight:normal;writing-mode:lr-tb;fill:#313739;fill-opacity:1;fill-rule:nonzero;stroke:none;font-family:Liberation Sans;-inkscape-font-specification:LiberationSans"
           x="0 3.9960001 13.896 23.903999 32.903999 42.804001 52.812 62.82 71.82 81.720001 87.713997 96.713997 100.71 109.71 119.61 125.604 135.612 145.62 160.524 170.532 174.528 184.42799"
           y="0"
           sodipodi:role="line"
           id="tspan3176">lookup_service(domain)</tspan></text>
</g><path
       d="m 589.3,365.3 -212.7,0"
       style="fill:none;stroke:#000000;stroke-width:0.81999999;stroke-linecap:butt;stroke-linejoin:miter;stroke-miterlimit:10;stroke-opacity:1;stroke-dasharray:none"
       id="path3178"
       inkscape:connector-curvature="0" /><path
       d="m 364.4,365.3 12.7,-4.2 0,8.5 -12.7,-4.3 z"
       style="fill:#000000;fill-opacity:1;fill-rule:evenodd;stroke:none"
       id="path3180"
       inkscape:connector-curvature="0" /><path
       d="m 320.1,332.3 -38.7,0 0,47.1 77.3,0 0,-47.1 -38.6,0 z"
       style="fill:#cfe7f5;fill-opacity:1;fill-rule:evenodd;stroke:#000000"
       id="path3182"
       inkscape:connector-curvature="0" /><g
       id="g3184"><path
         d="m 320.1,332.3 -38.7,0 0,47.1 77.3,0 0,-47.1 -38.6,0 z"
         style="fill:none;stroke:none"
         id="path3186"
         inkscape:connector-curvature="0" /></g><g
       id="g3188"><text
         transform="matrix(1,0,0,-1,294.2,359.7)"
         id="text3190"><tspan
           style="font-size:18px;font-style:italic;font-variant:normal;writing-mode:lr-tb;fill:#313739;fill-opacity:1;fill-rule:nonzero;stroke:none;font-family:Liberation Sans;-inkscape-font-specification:LiberationSans-Italic"
           x="0 12.996 22.896 32.903999 36.900002"
           y="0"
           sodipodi:role="line"
           id="tspan3192">Realm</tspan></text>
</g><g
       id="g3194"><text
         transform="matrix(1,0,0,-1,283.6,339.6)"
         id="text3196"><tspan
           style="font-size:18px;font-style:italic;font-variant:normal;writing-mode:lr-tb;fill:#313739;fill-opacity:1;fill-rule:nonzero;stroke:none;font-family:Liberation Sans;-inkscape-font-specification:LiberationSans-Italic"
           x="0 11.988 21.996 27.99 37.998001 47.897999 53.891998 63.900002"
           y="0"
           sodipodi:role="line"
           id="tspan3198">Kerberos</tspan></text>
</g><g
       id="g3200"><text
         transform="matrix(1,0,0,-1,380.6,341.6)"
         id="text3202"><tspan
           style="font-size:18px;font-variant:normal;font-weight:normal;writing-mode:lr-tb;fill:#313739;fill-opacity:1;fill-rule:nonzero;stroke:none;font-family:Liberation Sans;-inkscape-font-specification:LiberationSans"
           x="0 5.994 15.894 25.902 40.896 50.796001 54.792 64.800003 69.786003 74.772003 83.772003 93.779999 99.774002 109.782 119.682 125.676 135.68401 144.68401 150.67799 159.67799 169.578 178.578 187.578"
           y="0"
           sodipodi:role="line"
           id="tspan3204">{domain, kerberos-kdcs}</tspan></text>
</g><path
       d="m 49.7,396.6 213.4,0"
       style="fill:none;stroke:#000000;stroke-width:0.82000011;stroke-linecap:butt;stroke-linejoin:miter;stroke-miterlimit:10;stroke-opacity:1;stroke-dasharray:none"
       id="path3206"
       inkscape:connector-curvature="0" /><path
       d="m 275.3,396.6 -12.8,4.3 0,-8.5 12.8,4.2 z"
       style="fill:#000000;fill-opacity:1;fill-rule:evenodd;stroke:none"
       id="path3208"
       inkscape:connector-curvature="0" /><g
       id="g3210"><text
         transform="matrix(1,0,0,-1,58.2,400.5)"
         id="text3212"><tspan
           style="font-size:18px;font-variant:normal;font-weight:normal;writing-mode:lr-tb;fill:#313739;fill-opacity:1;fill-rule:nonzero;stroke:none;font-family:Liberation Sans;-inkscape-font-specification:LiberationSans"
           x="0 12.996 16.902 25.902 34.902 44.91 53.91 63.917999 69.912003 75.905998 85.806 95.814003 110.808 120.816 124.722 134.73 139.716 144.702 154.71001 164.718 169.70399 173.7 183.60001 193.608 202.608"
           y="0"
           sodipodi:role="line"
           id="tspan3214">Discover(domain, options)</tspan></text>
</g><path
       d="m 274.7,365.3 -212.8,0"
       style="fill:none;stroke:#000000;stroke-width:0.82000011;stroke-linecap:butt;stroke-linejoin:miter;stroke-miterlimit:10;stroke-opacity:1;stroke-dasharray:none"
       id="path3216"
       inkscape:connector-curvature="0" /><path
       d="m 49.7,365.3 12.8,-4.2 0,8.5 -12.8,-4.3 z"
       style="fill:#000000;fill-opacity:1;fill-rule:evenodd;stroke:none"
       id="path3218"
       inkscape:connector-curvature="0" /><g
       id="g3220"><text
         transform="matrix(1,0,0,-1,101.8,345.5)"
         id="text3222"><tspan
           style="font-size:18px;font-style:italic;font-variant:normal;writing-mode:lr-tb;fill:#313739;fill-opacity:1;fill-rule:nonzero;stroke:none;font-family:Liberation Sans;-inkscape-font-specification:LiberationSans-Italic"
           x="0 12.906 22.914 32.922001 36.827999 51.731998 63.720001 73.727997 79.722 89.622002 99.629997 105.624 115.632"
           y="0"
           sodipodi:role="line"
           id="tspan3224">RealmKerberos</tspan></text>
</g><g
       id="g3226" /><g
       id="g3228"><text
         transform="matrix(1,0,0,-1,118.2,325.3)"
         id="text3230"><tspan
           style="font-size:18px;font-variant:normal;font-weight:normal;writing-mode:lr-tb;fill:#313739;fill-opacity:1;fill-rule:nonzero;stroke:none;font-family:Liberation Sans;-inkscape-font-specification:LiberationSans"
           x="0 9.8999996 19.908001 23.813999 33.821999 42.821999 47.897999 52.883999 62.784 72.792 77.778 87.786003"
           y="0"
           sodipodi:role="line"
           id="tspan3232">object paths</tspan></text>
</g><path
       d="m 322.1,440.1 -43.5,0 0,32.1 87.1,0 0,-32.1 -43.6,0 z"
       style="fill:#cfe7f5;fill-opacity:1;fill-rule:evenodd;stroke:#000000"
       id="path3234"
       inkscape:connector-curvature="0" /><g
       id="g3236"><path
         d="m 322.1,440.1 -43.5,0 0,32.1 87.1,0 0,-32.1 -43.6,0 z"
         style="fill:none;stroke:none"
         id="path3238"
         inkscape:connector-curvature="0" /></g><g
       id="g3240"><text
         transform="matrix(1,0,0,-1,284.2,449.9)"
         id="text3242"><tspan
           style="font-size:18px;font-variant:normal;font-weight:normal;writing-mode:lr-tb;fill:#313739;fill-opacity:1;fill-rule:nonzero;stroke:none;font-family:Liberation Sans;-inkscape-font-specification:LiberationSans"
           x="0 9 19.007999 28.908001 33.984001 37.889999 47.897999 52.883999 57.959999 61.866001 65.862"
           y="0"
           sodipodi:role="line"
           id="tspan3244">config file</tspan></text>
</g><path
       d="m 316.8,440.1 0,-12.5"
       style="fill:none;stroke:#000000;stroke-width:0.1;stroke-linecap:butt;stroke-linejoin:miter;stroke-miterlimit:10;stroke-opacity:1;stroke-dasharray:none"
       id="path3246"
       inkscape:connector-curvature="0" /><path
       d="m 316.8,415.4 4.3,12.7 -8.6,0 4.3,-12.7 z"
       style="fill:#000000;fill-opacity:1;fill-rule:evenodd;stroke:none"
       id="path3248"
       inkscape:connector-curvature="0" /><g
       id="g3250"><g
         id="g3252" /><g
         id="g3258"><g
           clip-path="url(#clipPath3254)"
           id="g3260"
           style="opacity:0.5" /></g></g></g></svg>