<?xml version="1.0" encoding="UTF-8" standalone="no"?>
<!-- Created with Inkscape (http://www.inkscape.org/) -->

<svg
   xmlns:dc="http://purl.org/dc/elements/1.1/"
   xmlns:cc="http://creativecommons.org/ns#"
   xmlns:rdf="http://www.w3.org/1999/02/22-rdf-syntax-ns#"
   xmlns:svg="http://www.w3.org/2000/svg"
   xmlns="http://www.w3.org/2000/svg"
   xmlns:sodipodi="http://sodipodi.sourceforge.net/DTD/sodipodi-0.dtd"
   xmlns:inkscape="http://www.inkscape.org/namespaces/inkscape"
   id="svg4281"
   version="1.1"
   inkscape:version="0.48.4 r9939"
   width="959.50366"
   height="291.86615"
   xml:space="preserve"
   sodipodi:docname="join-method.svg"><metadata
     id="metadata4287"><rdf:RDF><cc:Work
         rdf:about=""><dc:format>image/svg+xml</dc:format><dc:type
           rdf:resource="http://purl.org/dc/dcmitype/StillImage" /><dc:title /></cc:Work></rdf:RDF></metadata><defs
     id="defs4285"><clipPath
       clipPathUnits="userSpaceOnUse"
       id="clipPath4295"><path
         d="M 0,0 720,0 720,540 0,540 0,0 z"
         clip-rule="evenodd"
         id="path4297"
         inkscape:connector-curvature="0" /></clipPath><clipPath
       clipPathUnits="userSpaceOnUse"
       id="clipPath4519"><path
         d="m 360,74 0,0 0,393.1 0,0 0,-393.1 z"
         id="path4521"
         inkscape:connector-curvature="0" /></clipPath></defs><sodipodi:namedview
     pagecolor="#ffffff"
     bordercolor="#666666"
     borderopacity="1"
     objecttolerance="10"
     gridtolerance="10"
     guidetolerance="10"
     inkscape:pageopacity="0"
     inkscape:pageshadow="2"
     inkscape:window-width="1242"
     inkscape:window-height="926"
     id="namedview4283"
     showgrid="false"
     units="cm"
     fit-margin-top="1"
     fit-margin-right="1"
     fit-margin-bottom="1"
     fit-margin-left="1"
     inkscape:zoom="0.98890193"
     inkscape:cx="429.89256"
     inkscape:cy="105.55565"
     inkscape:window-x="0"
     inkscape:window-y="27"
     inkscape:window-maximized="0"
     inkscape:current-layer="g4289" /><g
     id="g4289"
     inkscape:groupmode="layer"
     inkscape:label="Realmd-Internals"
     transform="matrix(1.25,0,0,-1.25,26.945571,582.68307)"><path
       d="m 548.9,357.8 -43.5,0 0,76.5 87,0 0,-76.5 -43.5,0 z"
       style="fill:#cfe7f5;fill-opacity:1;fill-rule:evenodd;stroke:#000000"
       id="path4309"
       inkscape:connector-curvature="0" /><g
       id="g4311"><path
         d="m 548.9,357.8 -43.5,0 0,76.5 87,0 0,-76.5 -43.5,0 z"
         style="fill:none;stroke:none"
         id="path4313"
         inkscape:connector-curvature="0" /></g><g
       id="g4315"><text
         transform="matrix(1,0,0,-1,512.4,399.9)"
         id="text4317"><tspan
           style="font-size:18px;font-variant:normal;font-weight:normal;writing-mode:lr-tb;fill:#313739;fill-opacity:1;fill-rule:nonzero;stroke:none;font-family:Liberation Sans;-inkscape-font-specification:LiberationSans"
           x="0 10.008 20.016001 29.016001 32.922001 36.917999 41.903999 51.911999 57.905998"
           y="0"
           sodipodi:role="line"
           id="tspan4319">adcli or </tspan></text>
</g><g
       id="g4321"><text
         transform="matrix(1,0,0,-1,512.4,379.8)"
         id="text4323"><tspan
           style="font-size:18px;font-variant:normal;font-weight:normal;writing-mode:lr-tb;fill:#313739;fill-opacity:1;fill-rule:nonzero;stroke:none;font-family:Liberation Sans;-inkscape-font-specification:LiberationSans"
           x="0 9.0900002 18.99 33.984001 43.992001"
           y="0"
           sodipodi:role="line"
           id="tspan4325">samba</tspan></text>
</g><path
       d="m 673.6,355 -43.5,0 0,82.3 87.1,0 0,-82.3 -43.6,0 z"
       style="fill:#cfe7f5;fill-opacity:1;fill-rule:evenodd;stroke:#000000"
       id="path4327"
       inkscape:connector-curvature="0" /><g
       id="g4329"><path
         d="m 673.6,355 -43.5,0 0,82.3 87.1,0 0,-82.3 -43.6,0 z"
         style="fill:none;stroke:none"
         id="path4331"
         inkscape:connector-curvature="0" /></g><g
       id="g4333"><text
         transform="matrix(1,0,0,-1,661.2,389.9)"
         id="text4335"><tspan
           style="font-size:18px;font-variant:normal;font-weight:normal;writing-mode:lr-tb;fill:#313739;fill-opacity:1;fill-rule:nonzero;stroke:none;font-family:Liberation Sans;-inkscape-font-specification:LiberationSans"
           x="0 11.898"
           y="0"
           sodipodi:role="line"
           id="tspan4337">AD</tspan></text>
</g><path
       d="m 7.2,396.6 218.2,0"
       style="fill:none;stroke:#000000;stroke-width:0.81999999;stroke-linecap:butt;stroke-linejoin:miter;stroke-miterlimit:10;stroke-opacity:1;stroke-dasharray:none"
       id="path4339"
       inkscape:connector-curvature="0" /><path
       d="m 237.6,396.6 -12.8,4.3 0,-8.5 12.8,4.2 z"
       style="fill:#000000;fill-opacity:1;fill-rule:evenodd;stroke:none"
       id="path4341"
       inkscape:connector-curvature="0" /><g
       id="g4343"><text
         transform="matrix(1,0,0,-1,14.3,400.5)"
         id="text4345"><tspan
           style="font-size:18px;font-variant:normal;font-weight:normal;writing-mode:lr-tb;fill:#313739;fill-opacity:1;fill-rule:nonzero;stroke:none;font-family:Liberation Sans;-inkscape-font-specification:LiberationSans"
           x="0 9 19.007999 22.914 32.922001 38.916 44.91 54.810001 64.818001 68.814003 83.807999 88.793999 93.779999 102.78 108.774 118.782 128.68201 137.772 142.758 147.744 157.752 167.65199 172.728 176.724 186.62399 196.632 205.632"
           y="0"
           sodipodi:role="line"
           id="tspan4347">Join(realm, creds, options)</tspan></text>
</g><path
       d="m 324.9,399.5 167.8,0"
       style="fill:none;stroke:#000000;stroke-width:0.81999999;stroke-linecap:butt;stroke-linejoin:miter;stroke-miterlimit:10;stroke-opacity:1;stroke-dasharray:none"
       id="path4349"
       inkscape:connector-curvature="0" /><path
       d="m 504.9,399.5 -12.7,4.2 0,-8.5 12.7,4.3 z"
       style="fill:#000000;fill-opacity:1;fill-rule:evenodd;stroke:none"
       id="path4351"
       inkscape:connector-curvature="0" /><g
       id="g4353"><text
         transform="matrix(1,0,0,-1,353.5,403.3)"
         id="text4355"><tspan
           style="font-size:18px;font-variant:normal;font-weight:normal;writing-mode:lr-tb;fill:#313739;fill-opacity:1;fill-rule:nonzero;stroke:none;font-family:Liberation Sans;-inkscape-font-specification:LiberationSans"
           x="0"
           y="0"
           id="tspan4357">“</tspan></text>
</g><g
       id="g4359"><text
         transform="matrix(1,0,0,-1,359.5,403.3)"
         id="text4361"><tspan
           style="font-size:18px;font-variant:normal;font-weight:normal;writing-mode:lr-tb;fill:#313739;fill-opacity:1;fill-rule:nonzero;stroke:none;font-family:Liberation Sans;-inkscape-font-specification:LiberationSans"
           x="0 9.8999996 19.908001 28.908001 32.903999 36.810001 41.886002 45.792 55.799999 59.706001 69.713997 74.699997 79.776001 84.762001 89.837997 95.832001 100.818 110.826"
           y="0"
           sodipodi:role="line"
           id="tspan4363">adcli join ...” or</tspan></text>
</g><g
       id="g4365"><text
         transform="matrix(1,0,0,-1,352.9,383.1)"
         id="text4367"><tspan
           style="font-size:18px;font-variant:normal;font-weight:normal;writing-mode:lr-tb;fill:#313739;fill-opacity:1;fill-rule:nonzero;stroke:none;font-family:Liberation Sans;-inkscape-font-specification:LiberationSans"
           x="0"
           y="0"
           id="tspan4369">“</tspan></text>
</g><g
       id="g4371"><text
         transform="matrix(1,0,0,-1,359,383.1)"
         id="text4373"><tspan
           style="font-size:18px;font-variant:normal;font-weight:normal;writing-mode:lr-tb;fill:#313739;fill-opacity:1;fill-rule:nonzero;stroke:none;font-family:Liberation Sans;-inkscape-font-specification:LiberationSans"
           x="0 9.8999996 19.908001 24.893999 29.879999 39.888 49.896 58.896 63.882 67.877998 77.778 81.774002 91.781998 96.767998 101.754 106.83 111.816"
           y="0"
           sodipodi:role="line"
           id="tspan4375">net ads join ...”</tspan></text>
</g><path
       d="m 291.6,317 -54,0 0,107.8 108,0 0,-107.8 -54,0 z"
       style="fill:#cfe7f5;fill-opacity:1;fill-rule:evenodd;stroke:#000000"
       id="path4377"
       inkscape:connector-curvature="0" /><g
       id="g4379"><path
         d="m 291.6,317 -54,0 0,107.8 108,0 0,-107.8 -54,0 z"
         style="fill:none;stroke:none"
         id="path4381"
         inkscape:connector-curvature="0" /></g><g
       id="g4383"><text
         transform="matrix(1,0,0,-1,265.7,344.5)"
         id="text4385"><tspan
           style="font-size:18px;font-variant:normal;font-weight:normal;writing-mode:lr-tb;fill:#313739;fill-opacity:1;fill-rule:nonzero;stroke:none;font-family:Liberation Sans;-inkscape-font-specification:LiberationSans"
           x="0 12.906 22.914 32.922001 36.827999"
           y="0"
           sodipodi:role="line"
           id="tspan4387">Realm</tspan></text>
</g><g
       id="g4389"><text
         transform="matrix(1,0,0,-1,255.2,324.3)"
         id="text4391"><tspan
           style="font-size:18px;font-variant:normal;font-weight:normal;writing-mode:lr-tb;fill:#313739;fill-opacity:1;fill-rule:nonzero;stroke:none;font-family:Liberation Sans;-inkscape-font-specification:LiberationSans"
           x="0 11.988 21.888 27.882 37.889999 47.897999 53.891998 63.792"
           y="0"
           sodipodi:role="line"
           id="tspan4393">Kerberos</tspan></text>
</g><path
       d="m 367.4,261.5 -54.8,0 0,32.1 109.5,0 0,-32.1 -54.7,0 z"
       style="fill:#cfe7f5;fill-opacity:1;fill-rule:evenodd;stroke:#000000"
       id="path4479"
       inkscape:connector-curvature="0" /><g
       id="g4481"><path
         d="m 367.4,261.5 -54.8,0 0,32.1 109.5,0 0,-32.1 -54.7,0 z"
         style="fill:none;stroke:none"
         id="path4483"
         inkscape:connector-curvature="0" /></g><g
       id="g4485"><text
         transform="matrix(1,0,0,-1,329.5,271.3)"
         id="text4487"><tspan
           style="font-size:18px;font-variant:normal;font-weight:normal;writing-mode:lr-tb;fill:#313739;fill-opacity:1;fill-rule:nonzero;stroke:none;font-family:Liberation Sans;-inkscape-font-specification:LiberationSans"
           x="0 9 18.9 28.908001 33.894001 37.889999 47.790001 52.866001 57.852001 61.848 65.753998"
           y="0"
           sodipodi:role="line"
           id="tspan4489">config file</tspan></text>
</g><path
       d="m 254.4,317 0,-12.4"
       style="fill:none;stroke:#000000;stroke-width:0.81999993;stroke-linecap:butt;stroke-linejoin:miter;stroke-miterlimit:10;stroke-opacity:1;stroke-dasharray:none"
       id="path4491"
       inkscape:connector-curvature="0" /><path
       d="m 254.4,292.4 4.3,12.7 -8.5,0 4.2,-12.7 z"
       style="fill:#000000;fill-opacity:1;fill-rule:evenodd;stroke:none"
       id="path4493"
       inkscape:connector-curvature="0" /><path
       d="m 222.8,261.5 -54.8,0 0,32.1 109.6,0 0,-32.1 -54.8,0 z"
       style="fill:#cfe7f5;fill-opacity:1;fill-rule:evenodd;stroke:#000000"
       id="path4495"
       inkscape:connector-curvature="0" /><g
       id="g4497"><path
         d="m 222.8,261.5 -54.8,0 0,32.1 109.6,0 0,-32.1 -54.8,0 z"
         style="fill:none;stroke:none"
         id="path4499"
         inkscape:connector-curvature="0" /></g><g
       id="g4501"><text
         transform="matrix(1,0,0,-1,196.5,271.3)"
         id="text4503"><tspan
           style="font-size:18px;font-variant:normal;font-weight:normal;writing-mode:lr-tb;fill:#313739;fill-opacity:1;fill-rule:nonzero;stroke:none;font-family:Liberation Sans;-inkscape-font-specification:LiberationSans"
           x="0 9 18.9 27.702 32.688 42.695999"
           y="0"
           sodipodi:role="line"
           id="tspan4505">keytab</tspan></text>
</g><path
       d="m 331,317 0,-12.4"
       style="fill:none;stroke:#000000;stroke-width:0.81999993;stroke-linecap:butt;stroke-linejoin:miter;stroke-miterlimit:10;stroke-opacity:1;stroke-dasharray:none"
       id="path4507"
       inkscape:connector-curvature="0" /><path
       d="m 331,292.4 4.2,12.7 -8.5,0 4.3,-12.7 z"
       style="fill:#000000;fill-opacity:1;fill-rule:evenodd;stroke:none"
       id="path4509"
       inkscape:connector-curvature="0" /><path
       d="m 592.4,397.3 25.5,0"
       style="fill:none;stroke:#000000;stroke-width:0.81999999;stroke-linecap:butt;stroke-linejoin:miter;stroke-miterlimit:10;stroke-opacity:1;stroke-dasharray:none"
       id="path4511"
       inkscape:connector-curvature="0" /><path
       d="m 630.1,397.3 -12.8,4.3 0,-8.5 12.8,4.2 z"
       style="fill:#000000;fill-opacity:1;fill-rule:evenodd;stroke:none"
       id="path4513"
       inkscape:connector-curvature="0" /><g
       id="g4515"><g
         id="g4517" /><g
         id="g4523"><g
           clip-path="url(#clipPath4519)"
           id="g4525"
           style="opacity:0.5" /></g></g></g></svg>